# xmcd
#
# Track frame offsets: 
#        150
#        10995
#        24623
#        37665
#        51176
#        66358
#        80764
#        92184
#        103532
#        117969
#        129200
#        140146
#        155216
#        167493
#        183610
#        195184
#        205936
#        218737
#        231625
#        244344
#        256630
#
# Disc length: 3574 seconds
#
# Revision: 1
# Processed by: cddbd v1.5.2PL0 Copyright (c) Steve Scherf et al.
# Submitted via: ExactAudioCopy v1.0b3
#
DISCID=290df415
DTITLE=Delmore Brothers, The - Classic Cuts - 1933-41 [Disc B]
DYEAR=2004
DGENRE=Hillbilly
TTITLE0=The Nashville Blues 
TTITLE1=The Lover's Warning
TTITLE2=I'm Worried Now 
TTITLE3=Take Away This Lonesome Day 
TTITLE4=Promise Me You'll Always Be Faithful 
TTITLE5=Don't You See That Train 
TTITLE6=It's Takin' Me Down 
TTITLE7=That Yodelin' Gal - Miss Julie 
TTITLE8=I'm Gonna Change My Way 
TTITLE9=Happy Hickey - The Hobo 
TTITLE10=Lonesome Yodel Blues - No.2 
TTITLE11=Put Me On The Trail To Carolina 
TTITLE12=My Smokey Mountain Gal 
TTITLE13=Take Me Back To The Range
TTITLE14=No Drunkard Can Enter There 
TTITLE15=Southern Moon 
TTITLE16=False Hearted Girl 
TTITLE17=The Budded Rose 
TTITLE18=The Blind Child
TTITLE19=Are You Marching With The Saviour 
TTITLE20=No One
EXTD=YEAR: 2004
EXTT0=
EXTT1=
EXTT2=
EXTT3=
EXTT4=
EXTT5=
EXTT6=
EXTT7=
EXTT8=
EXTT9=
EXTT10=
EXTT11=
EXTT12=
EXTT13=
EXTT14=
EXTT15=
EXTT16=
EXTT17=
EXTT18=
EXTT19=
EXTT20=
PLAYORDER=
